<svg width="1690" height="1197" viewBox="0 0 1690 1197" fill="none" xmlns="http://www.w3.org/2000/svg">
<mask id="mask0_18_591" style="mask-type:alpha" maskUnits="userSpaceOnUse" x="0" y="0" width="1690" height="1197">
<rect width="1690" height="1197" fill="#D9D9D9"/>
</mask>
<g mask="url(#mask0_18_591)">
<g opacity="0.68">
<path d="M2520.52 1315.77L2661.48 157.155C2650.65 167.343 2547.73 230.635 2521.06 250.1C2494.4 269.564 2421.89 298.824 2324.98 333.508C2228.07 368.191 2165.46 333.77 2118.67 317.578C2071.89 301.385 1999.04 195.633 1935.83 126.217C1872.62 56.8009 1815.68 2.77879 1699.37 14.7946C1583.06 26.8104 1563.13 88.6648 1533.7 122.179C1510.16 148.991 1512.86 227.556 1517.15 263.487C1491.34 274.936 1466.89 306.864 1459.38 335.498C1453.38 358.406 1463.19 401.275 1468.85 419.847C1406.09 376.927 1362.69 382.68 1319.72 384.924C1276.75 387.168 1198.34 422.031 1158.85 480.724C1127.26 527.678 1152.46 563.847 1169.01 576.062C1107.12 583.135 1073.52 616.055 1064.49 633.881C1002.89 628.447 936.175 645.604 868.067 668.787C819.399 676.831 734.628 760.112 698.326 800.746C672.239 844.038 615.759 936.196 598.543 958.498C581.326 980.799 540.453 992.342 522.169 995.326C528.432 991.217 539.058 977.231 531.458 954.159C523.857 931.087 480.044 930.712 459.087 933.409C419.646 942.893 390.005 996.615 380.115 1022.29C224.857 1043.38 60.9991 1143.5 -1.52246 1190.92C43.7088 1184.64 174.598 1173.27 336.306 1178.07C498.013 1182.87 708.426 1258.81 793.419 1296.17L2520.52 1315.77Z" fill="url(#paint0_linear_18_591)"/>
<g filter="url(#filter0_d_18_591)">
<path d="M2649.52 304.132C2629.82 324.429 2609.34 344.399 2588.55 363.897C2484.05 460.836 2372.02 551.035 2245.34 619.705C2188.18 649.298 2128.12 677.862 2060.1 681.394C1904.05 679.434 1702.52 753.409 1717.74 931.36C1719.8 978.966 1689.13 1023.14 1650.69 1046.13C1618.79 1065.95 1582.38 1076.51 1545.33 1078.11C1540.77 1082.02 1536.26 1086.15 1531.74 1090.29C1485.64 1134.88 1426.29 1178.34 1356.1 1181.35C1341.64 1182.2 1327.14 1181.62 1312.83 1179.79C1303.37 1178.58 1294.12 1178.17 1284.72 1178.61C1214.84 1180.66 1159.17 1234.96 1111.75 1289.88C1105.7 1296.62 1099.6 1303.39 1093.2 1309.73C1098.31 1302.32 1103.09 1294.65 1107.95 1287.01C1144.86 1226.07 1201.16 1158.77 1283.63 1155.64C1294.46 1155.13 1305.03 1155.61 1315.74 1156.97C1328.73 1158.63 1341.8 1159.15 1354.77 1158.39C1417.2 1155.7 1472.16 1120.13 1522.94 1079.73C1523.74 1079.13 1524.54 1078.53 1525.34 1077.93C1510.42 1077 1495.38 1074.2 1481.1 1068.05C1462.43 1060.67 1443.5 1041.46 1444.67 1018.6C1444.3 990.587 1466.85 968.258 1490.17 960.769C1504.36 955.953 1519.81 954.143 1534.37 958.812C1541.44 961.148 1548.56 966.148 1550.87 973.603C1553.23 980.938 1550.96 988.555 1547.81 994.812C1550.21 988.214 1551.33 980.564 1548.52 974.507C1545.78 968.373 1539.47 964.931 1533.02 963.515C1519.81 960.761 1505.77 963.817 1493.59 969.311C1473.12 978.334 1457.9 997.629 1459.74 1018.34C1461.62 1050.93 1505.82 1059.06 1538.87 1057.28C1573.9 1055.46 1609.02 1045.01 1638.44 1026.66C1672.34 1005.98 1696.21 970.816 1694.74 931.759C1689.93 846.011 1736.66 755.43 1814.07 715.121C1889.73 672.717 1975.98 661.313 2059.43 658.404C2119.75 655.511 2178.99 628.385 2234.55 599.397C2358.4 532.295 2472.84 447.205 2583.94 358.594C2606.07 340.754 2628.07 322.567 2649.52 304.132ZM1502.26 192.207C1508.35 84.9342 1615.14 1.28378 1718.75 7.86658C1945.37 -11.04 1984.37 266.481 2155.2 330.269C2248.98 364.072 2353.77 325.166 2444.37 284.26C2497.36 259.403 2549.52 231.814 2599.58 200.91C2620.7 187.832 2641.63 173.989 2661.51 159.403C2642.55 175.157 2622.66 190.55 2602.52 205.27C2554.81 240.053 2504.44 272.149 2450.77 297.822C2358.78 339.63 2253.33 382.266 2148.87 346.24C1964.29 272.458 1928.6 6.49668 1719.11 28.5451C1620.82 24.5882 1531.07 96.6081 1524.62 194.914C1522.28 215.283 1522.25 236.546 1525.64 256.268C1544.07 248.064 1563.83 242.813 1582.97 239.252C1612.12 233.988 1641.8 233.679 1671.11 235.049C1677.48 235.358 1684.01 235.75 1690.7 236.215C1683.99 236.355 1677.47 236.626 1671.12 237.008C1641.89 238.753 1612.95 242.738 1584.96 249.051C1543.51 258.443 1501.16 276.546 1479.16 311.299C1456.79 345.391 1463.6 393.409 1490.24 422.647C1492.02 424.612 1493.91 426.499 1495.87 428.271C1502.52 433.209 1508.88 438.308 1514.91 443.494C1561.25 475.432 1616.05 499.513 1671.71 506.353C1696.92 509.138 1722.71 507.47 1744.8 497.391C1795.06 474.804 1845.23 427.893 1835.62 372.602C1832.39 353.067 1823.03 334.57 1807.15 324.583C1788.28 312.182 1761.41 314.174 1743.24 329.394C1730.59 339.573 1723.05 357.446 1726.36 374.04C1728.55 386.76 1739.87 396.702 1753.66 396.996C1767.29 397.647 1780.81 392.525 1793.31 385.972C1781.28 393.395 1768.33 399.809 1753.62 400.46C1738.88 401.733 1723.19 391.045 1719.29 375.885C1713.59 356.415 1720.32 334.608 1735.24 320.39C1755.38 300.392 1790.28 294.987 1815.58 310.986C1836.74 323.772 1848.41 347.077 1852.49 369.553C1864.58 438.01 1806.49 490.286 1752.97 515.097C1726.44 527.433 1697.06 529.146 1669.56 526.237C1608.74 518.79 1552.83 494.273 1502.9 460.292C1445.36 412.499 1378 380.343 1306.5 398.895C1234.02 412.291 1159.03 466.472 1154.72 536.298C1156.01 555.74 1167.72 571.5 1185.33 581.67C1205 593.19 1229.02 599.038 1253.2 602.853C1293.29 610.974 1343.76 597.897 1347.71 559.198C1348.33 535.24 1331.49 511.438 1306.31 509.643C1285.89 506.985 1262.99 518.603 1255.51 538.518C1254.55 541.221 1253.96 544.031 1253.88 546.823C1253.79 557.298 1262.71 568.487 1274.13 570.758C1285.78 573.275 1298.01 567.449 1307.75 559.89C1298.78 568.294 1287.05 575.775 1273.55 574.233C1260.29 572.631 1248.48 561.484 1247.14 546.94C1246.95 543.33 1247.42 539.74 1248.33 536.316C1255.48 511.502 1281.66 495.671 1307.23 497.159C1338.84 496.913 1364.71 528.158 1364.77 558.903C1360.9 618.256 1292.59 631.873 1250.13 623.889C1224.39 620.189 1198.27 614.505 1174.16 600.498C1171.19 598.868 1168.28 596.996 1165.46 594.911C1130.58 597.43 1103.4 611.655 1085.92 625.066C1147.04 628.677 1209.09 645.012 1259.6 680.231C1303.47 645.465 1357.98 630.907 1412.05 632.122C1484.19 634.274 1585.14 661.946 1594.15 754.618C1585.57 850.4 1495.29 909.185 1407.43 908.698C1379.88 906.948 1352.05 903.63 1324.78 893.203C1321.4 892.027 1317.98 890.594 1314.58 888.923C1302.11 907.844 1287.56 925.384 1270.86 941.038C1201.09 1006.56 1095.1 1035.59 1000.87 1002.37C984.416 995.921 966.603 982.525 961.765 961.613C956.92 940.95 965.683 921.12 977.484 907.412C1001.83 879.393 1039.5 869.038 1073.78 872.063C1090.83 873.764 1107.54 868.758 1112.76 857.044C1118.55 845.46 1112.86 828.474 1101.36 816.769C1077.79 792.48 1038.68 785.441 1002.14 787.721C855.412 805.13 792.202 972.508 670.979 1062.91C642.134 1083.94 611.184 1101.52 579.336 1116.83C524.476 1143.07 466.259 1161.09 407.145 1172.79C380.873 1177.93 354.504 1181.85 327.907 1183.97C353.698 1177.21 378.953 1169.44 404.125 1161.21C460.744 1142.56 516.252 1121.51 569.383 1096.09C600.234 1081.27 630.019 1064.31 657.421 1044.33C772.807 961.453 831.959 788.176 1000.76 764.763C1040.9 762.562 1086.07 768.691 1118.02 800.916C1133.1 816.514 1144.92 842.215 1133.51 866.971C1121.31 892.053 1092.45 896.997 1071.85 894.982C1043.17 892.339 1012.79 901.622 994.972 922.351C975.726 943.335 981.868 971.647 1009.49 981.047C1091.64 1010.26 1191.99 987.353 1259.96 928.864C1276.1 915.12 1290.58 899.553 1303.42 882.491C1284.59 869.94 1268.73 850.087 1267.39 826.076C1267.26 824.753 1267.15 823.444 1267.08 822.149C1265.63 803.836 1272.27 782.366 1287.15 769.31C1301.71 756.086 1319.87 750.475 1337.22 748.309C1359.08 746.042 1382.97 751.152 1398.12 770.464C1408.57 784 1406.62 803.014 1399.87 815.472C1390.6 832.414 1373.45 839.911 1356.7 840.876C1348.37 841.17 1338.94 838.755 1333.49 831.854C1328.04 824.956 1327.82 816.283 1329.06 808.573C1328.99 816.421 1330.8 824.521 1336.14 829.431C1341.39 834.346 1349.07 835.201 1356.09 834.034C1370.1 831.615 1384.03 822.032 1388.41 810.422C1392.75 799.193 1392.03 787.919 1385.24 780.537C1375.29 769.395 1356.08 765.661 1340.16 768.489C1310.45 772.999 1286.96 792.532 1290.05 820.86C1290.1 821.824 1290.18 822.809 1290.28 823.815C1294.19 871.434 1359.16 882.732 1408.78 885.738C1482.1 888.69 1567.27 827.11 1571.18 755.729C1566.72 686.366 1479.95 656.303 1411.37 655.112C1359.96 653.516 1305.37 670.248 1268.09 703.001L1261.38 709.515L1253.63 704.277C1194.7 660.374 1120.99 645.87 1047.72 647.42L1047.67 647.421C924.655 646.979 805.961 698.294 724.484 792.999C682.287 840.603 651.56 905.017 608.469 960.002C585.71 986.183 554.53 1000.44 521.798 1007.01L505.244 1009.69L515.667 996.557C525.023 984.822 531.662 967.799 525.212 957.423C518.857 946.88 501.61 943.438 486.014 942.706C438.03 938.857 404.953 985.584 395.888 1029.75L393.849 1039.31L384.263 1038.87C378.143 1038.68 371.656 1038.97 365.035 1039.58C295.84 1047.85 227.39 1076.88 162.318 1107.11C145.636 1115.05 129 1123.05 112.366 1131.18C72.9987 1150.85 32.4962 1169.35 -3.9581 1194.71C25.6328 1160.95 64.0289 1135.42 102.474 1112.66C118.781 1103.19 135.437 1094.43 152.435 1086.34C219.123 1055.54 287.168 1025.92 362.936 1016.67C367.221 1016.28 371.519 1016.02 375.81 1015.94C389.624 967.672 432.215 919.438 487.212 926.648C504.255 928.859 525.236 931.22 537.305 950.564C544.351 964.989 541.149 978.651 535.061 990.322C558.932 982.947 581.682 969.346 596.501 950.348C635.722 895.974 659.899 831.621 708.615 776.35C790.209 680.48 920.109 623.07 1047.37 624.422C1049.2 624.377 1051.03 624.345 1052.87 624.32C1067.88 607.403 1100.1 582.471 1145.65 574.254C1138.36 563.51 1133.54 551.041 1132.93 538.155C1139.45 445.529 1224.87 393.509 1302.05 377.957C1354.9 363.496 1409.84 377.696 1456.73 403.197C1444.11 370.413 1446.38 332.03 1466.66 303.126C1476.95 288.255 1489.93 276.647 1504.41 267.526C1499.21 242.294 1499.31 217.04 1502.26 192.207ZM2284.36 838.611C2359.41 801.119 2458.18 768.303 2536.58 817.755C2552.01 827.746 2564.73 839.983 2575.77 854.278C2576.32 854.747 2576.87 855.208 2577.39 855.663L2577.06 856.04L2576.74 856.419C2562.9 844.439 2538.32 827.493 2509.6 815.624C2508.84 815.308 2508.07 814.997 2507.3 814.688C2436.33 795.087 2360.6 826.802 2294.71 859.151C2200.78 904.114 2128.3 974.276 2025.75 1022.39C1993.02 1028.24 1958.77 1027.06 1926.65 1014.92C1894.98 1004.04 1863.96 972.361 1864.82 934.815C1866.2 899.427 1887.9 872.417 1918.47 858.606C1937.38 851.244 1958.37 847.477 1979.62 851.846C2000.85 855.453 2021.45 873.581 2025.4 894.917C2029.16 911.13 2021.01 925.47 2011.33 934.577C2003.91 941.458 1994.73 946.606 1984.54 947.541C1974.23 948.893 1964.06 942.023 1961.31 933.144C1972.44 951.176 1994.45 940.029 2003.43 927.319C2010.17 918.612 2013.29 907.369 2009.99 899.407C1999.17 867.225 1957.62 867.428 1926.92 880C1906.29 888.393 1887.71 913.125 1887.81 934.417C1887.99 992.229 1966.54 1010.94 2021.57 999.767C2105.88 959.142 2190.34 884.012 2284.36 838.611ZM2516.71 817.603C2539.54 827.872 2559.29 840.974 2572.43 851.533C2560.36 840.342 2547.39 831.263 2532.93 824.195C2527.56 821.663 2522.15 819.474 2516.71 817.603Z" fill="white"/>
</g>
</g>
<path d="M2840.52 1318.77L2981.48 160.154C2970.65 170.343 2867.73 233.634 2841.06 253.099C2814.4 272.563 2741.89 301.823 2644.98 336.507C2548.07 371.19 2485.46 336.769 2438.67 320.577C2391.89 304.384 2319.04 198.632 2255.83 129.216C2192.62 59.7999 2135.68 5.77781 2019.37 17.7936C1903.06 29.8094 1883.13 91.6638 1853.7 125.178C1830.16 151.99 1832.86 230.555 1837.15 266.486C1811.34 277.935 1786.89 309.863 1779.38 338.497C1773.38 361.405 1783.19 404.274 1788.85 422.846C1726.09 379.926 1682.69 385.679 1639.72 387.923C1596.75 390.167 1518.34 425.03 1478.85 483.723C1447.26 530.677 1472.46 566.846 1489.01 579.061C1427.12 586.134 1393.52 619.054 1384.49 636.88C1322.89 631.446 1256.18 648.604 1188.07 671.786C1139.4 679.83 1054.63 763.111 1018.33 803.745C992.239 847.037 935.759 939.195 918.543 961.497C901.326 983.798 860.453 995.341 842.169 998.325C848.432 994.216 859.058 980.23 851.458 957.158C843.857 934.086 800.044 933.711 779.087 936.408C739.646 945.892 710.005 999.614 700.115 1025.29C544.857 1046.38 380.999 1146.5 318.478 1193.92C363.709 1187.64 494.598 1176.27 656.306 1181.07C818.013 1185.87 1028.43 1261.81 1113.42 1299.17L2840.52 1318.77Z" fill="url(#paint1_linear_18_591)"/>
<g filter="url(#filter1_d_18_591)">
<path d="M2969.52 307.132C2949.82 327.429 2929.34 347.399 2908.55 366.897C2804.05 463.836 2692.02 554.035 2565.34 622.705C2508.18 652.298 2448.12 680.862 2380.1 684.394C2224.05 682.434 2022.52 756.408 2037.74 934.36C2039.8 981.966 2009.13 1026.14 1970.69 1049.13C1938.79 1068.95 1902.38 1079.5 1865.33 1081.11C1860.77 1085.02 1856.26 1089.15 1851.74 1093.29C1805.64 1137.88 1746.29 1181.34 1676.1 1184.35C1661.64 1185.2 1647.14 1184.61 1632.83 1182.79C1623.37 1181.58 1614.12 1181.17 1604.72 1181.61C1534.84 1183.66 1479.17 1237.96 1431.75 1292.88C1425.7 1299.62 1419.6 1306.39 1413.2 1312.73C1418.31 1305.32 1423.09 1297.64 1427.95 1290.01C1464.86 1229.07 1521.16 1161.77 1603.63 1158.63C1614.46 1158.13 1625.03 1158.61 1635.74 1159.97C1648.73 1161.63 1661.8 1162.15 1674.77 1161.39C1737.2 1158.7 1792.16 1123.13 1842.94 1082.73C1843.74 1082.13 1844.54 1081.53 1845.34 1080.93C1830.42 1080 1815.38 1077.2 1801.1 1071.05C1782.43 1063.67 1763.5 1044.46 1764.67 1021.6C1764.3 993.587 1786.85 971.258 1810.17 963.769C1824.36 958.953 1839.81 957.143 1854.37 961.812C1861.44 964.148 1868.56 969.148 1870.87 976.603C1873.23 983.938 1870.96 991.555 1867.81 997.812C1870.21 991.214 1871.33 983.564 1868.52 977.507C1865.78 971.373 1859.47 967.931 1853.02 966.515C1839.8 963.761 1825.77 966.817 1813.59 972.311C1793.12 981.335 1777.9 1000.63 1779.74 1021.34C1781.62 1053.93 1825.82 1062.06 1858.87 1060.28C1893.9 1058.46 1929.02 1048.01 1958.44 1029.66C1992.34 1008.98 2016.21 973.816 2014.74 934.759C2009.93 849.011 2056.66 758.431 2134.07 718.121C2209.73 675.717 2295.98 664.313 2379.43 661.404C2439.75 658.511 2498.99 631.385 2554.55 602.397C2678.4 535.295 2792.84 450.205 2903.94 361.594C2926.07 343.754 2948.07 325.567 2969.52 307.132ZM1822.26 195.206C1828.35 87.9333 1935.14 4.28281 2038.75 10.8656C2265.37 -8.04095 2304.37 269.48 2475.2 333.268C2568.98 367.071 2673.77 328.165 2764.37 287.259C2817.36 262.402 2869.52 234.813 2919.58 203.909C2940.7 190.831 2961.63 176.988 2981.51 162.402C2962.55 178.156 2942.66 193.549 2922.52 208.269C2874.81 243.052 2824.44 275.148 2770.77 300.821C2678.78 342.629 2573.33 385.265 2468.87 349.239C2284.29 275.457 2248.6 9.49571 2039.11 31.5441C1940.82 27.5872 1851.07 99.6071 1844.62 197.913C1842.28 218.282 1842.25 239.545 1845.64 259.267C1864.07 251.063 1883.83 245.812 1902.97 242.251C1932.12 236.987 1961.8 236.678 1991.11 238.048C1997.48 238.357 2004.01 238.749 2010.7 239.214C2003.99 239.354 1997.47 239.625 1991.12 240.007C1961.89 241.752 1932.95 245.737 1904.96 252.05C1863.51 261.442 1821.16 279.545 1799.16 314.298C1776.79 348.39 1783.6 396.408 1810.24 425.646C1812.02 427.61 1813.91 429.496 1815.87 431.268C1822.52 436.207 1828.88 441.306 1834.91 446.493C1881.25 478.431 1936.05 502.512 1991.71 509.352C2016.92 512.137 2042.71 510.469 2064.8 500.39C2115.06 477.803 2165.23 430.892 2155.62 375.601C2152.39 356.066 2143.03 337.569 2127.15 327.582C2108.28 315.181 2081.41 317.173 2063.24 332.393C2050.59 342.572 2043.05 360.445 2046.36 377.039C2048.55 389.759 2059.87 399.701 2073.66 399.995C2087.29 400.646 2100.81 395.525 2113.31 388.971C2101.28 396.394 2088.33 402.808 2073.62 403.459C2058.88 404.732 2043.19 394.044 2039.29 378.884C2033.59 359.414 2040.32 337.607 2055.24 323.389C2075.38 303.391 2110.28 297.986 2135.58 313.985C2156.74 326.771 2168.41 350.076 2172.49 372.552C2184.58 441.009 2126.49 493.285 2072.97 518.096C2046.44 530.432 2017.06 532.145 1989.56 529.236C1928.74 521.789 1872.83 497.272 1822.9 463.291C1765.36 415.498 1698 383.342 1626.5 401.894C1554.02 415.29 1479.03 469.471 1474.72 539.297C1476.01 558.739 1487.72 574.499 1505.33 584.669C1525 596.189 1549.02 602.037 1573.2 605.852C1613.29 613.973 1663.76 600.896 1667.71 562.197C1668.33 538.239 1651.49 514.437 1626.31 512.642C1605.89 509.984 1582.99 521.602 1575.51 541.517C1574.55 544.22 1573.96 547.03 1573.88 549.822C1573.79 560.297 1582.71 571.486 1594.13 573.757C1605.78 576.274 1618.01 570.448 1627.75 562.889C1618.78 571.293 1607.05 578.774 1593.55 577.232C1580.29 575.63 1568.48 564.483 1567.14 549.939C1566.95 546.329 1567.42 542.739 1568.33 539.315C1575.48 514.501 1601.66 498.67 1627.23 500.158C1658.84 499.912 1684.71 531.157 1684.77 561.902C1680.9 621.255 1612.59 634.872 1570.13 626.888C1544.39 623.189 1518.27 617.504 1494.16 603.497C1491.19 601.867 1488.28 599.995 1485.46 597.91C1450.58 600.429 1423.4 614.654 1405.92 628.065C1467.04 631.676 1529.09 648.011 1579.6 683.23C1623.47 648.464 1677.98 633.906 1732.05 635.121C1804.19 637.273 1905.14 664.945 1914.15 757.617C1905.57 853.399 1815.29 912.184 1727.43 911.697C1699.88 909.947 1672.05 906.629 1644.78 896.202C1641.4 895.026 1637.98 893.593 1634.58 891.922C1622.11 910.843 1607.56 928.383 1590.86 944.037C1521.09 1009.56 1415.1 1038.59 1320.87 1005.37C1304.42 998.92 1286.6 985.524 1281.76 964.612C1276.92 943.949 1285.68 924.119 1297.48 910.411C1321.83 882.392 1359.5 872.037 1393.78 875.062C1410.83 876.763 1427.54 871.757 1432.76 860.043C1438.55 848.459 1432.86 831.473 1421.36 819.768C1397.79 795.479 1358.68 788.44 1322.14 790.72C1175.41 808.129 1112.2 975.507 990.979 1065.91C962.134 1086.94 931.184 1104.52 899.336 1119.83C844.476 1146.07 786.259 1164.09 727.145 1175.79C700.873 1180.93 674.504 1184.85 647.907 1186.96C673.698 1180.2 698.953 1172.43 724.125 1164.21C780.744 1145.56 836.252 1124.51 889.383 1099.09C920.234 1084.27 950.019 1067.31 977.421 1047.33C1092.81 964.452 1151.96 791.175 1320.76 767.762C1360.9 765.561 1406.07 771.69 1438.02 803.915C1453.1 819.513 1464.92 845.214 1453.51 869.97C1441.31 895.052 1412.45 899.996 1391.85 897.981C1363.17 895.338 1332.79 904.621 1314.97 925.35C1295.73 946.334 1301.87 974.646 1329.49 984.046C1411.64 1013.26 1511.99 990.352 1579.96 931.863C1596.1 918.119 1610.58 902.552 1623.42 885.49C1604.59 872.939 1588.73 853.086 1587.39 829.075C1587.26 827.752 1587.15 826.443 1587.08 825.148C1585.63 806.835 1592.27 785.365 1607.15 772.309C1621.71 759.085 1639.87 753.474 1657.22 751.308C1679.08 749.041 1702.97 754.151 1718.12 773.463C1728.57 786.999 1726.62 806.013 1719.87 818.471C1710.6 835.413 1693.45 842.91 1676.7 843.875C1668.37 844.169 1658.94 841.754 1653.49 834.853C1648.04 827.955 1647.82 819.282 1649.06 811.572C1648.99 819.42 1650.8 827.52 1656.14 832.43C1661.39 837.345 1669.07 838.2 1676.09 837.033C1690.1 834.614 1704.03 825.032 1708.41 813.421C1712.75 802.192 1712.03 790.918 1705.24 783.536C1695.29 772.394 1676.08 768.66 1660.16 771.488C1630.45 775.998 1606.96 795.531 1610.05 823.859C1610.1 824.823 1610.18 825.808 1610.28 826.814C1614.19 874.433 1679.16 885.731 1728.78 888.737C1802.1 891.689 1887.27 830.109 1891.18 758.728C1886.72 689.365 1799.95 659.302 1731.37 658.111C1679.96 656.515 1625.37 673.247 1588.09 706L1581.38 712.514L1573.63 707.276C1514.7 663.373 1440.99 648.869 1367.72 650.419L1367.67 650.42C1244.66 649.978 1125.96 701.293 1044.48 795.998C1002.29 843.602 971.56 908.016 928.469 963.001C905.71 989.182 874.53 1003.44 841.798 1010.01L825.244 1012.69L835.667 999.556C845.023 987.821 851.662 970.798 845.212 960.422C838.857 949.879 821.61 946.437 806.014 945.705C758.03 941.856 724.953 988.583 715.888 1032.75L713.849 1042.31L704.263 1041.86C698.143 1041.68 691.656 1041.97 685.035 1042.57C615.84 1050.85 547.39 1079.87 482.318 1110.11C465.636 1118.05 449 1126.05 432.366 1134.18C392.999 1153.85 352.496 1172.35 316.042 1197.71C345.633 1163.95 384.029 1138.42 422.474 1115.66C438.781 1106.19 455.437 1097.43 472.435 1089.34C539.123 1058.54 607.168 1028.92 682.936 1019.67C687.221 1019.28 691.519 1019.02 695.81 1018.94C709.624 970.671 752.215 922.437 807.212 929.647C824.255 931.858 845.236 934.219 857.305 953.563C864.351 967.988 861.149 981.65 855.061 993.321C878.932 985.946 901.682 972.345 916.501 953.347C955.722 898.973 979.899 834.62 1028.62 779.349C1110.21 683.479 1240.11 626.069 1367.37 627.421C1369.2 627.376 1371.03 627.344 1372.87 627.319C1387.88 610.402 1420.1 585.47 1465.65 577.253C1458.36 566.509 1453.54 554.04 1452.93 541.154C1459.45 448.528 1544.87 396.508 1622.05 380.956C1674.9 366.495 1729.84 380.695 1776.73 406.196C1764.11 373.412 1766.38 335.029 1786.66 306.125C1796.95 291.254 1809.93 279.646 1824.41 270.525C1819.21 245.293 1819.31 220.039 1822.26 195.206ZM2604.36 841.61C2679.41 804.118 2778.18 771.302 2856.58 820.754C2872.01 830.744 2884.72 842.981 2895.77 857.276C2896.32 857.745 2896.86 858.206 2897.39 858.662L2897.06 859.039L2896.74 859.418C2882.9 847.438 2858.32 830.492 2829.6 818.623C2828.84 818.308 2828.07 817.996 2827.3 817.687C2756.33 798.086 2680.6 829.801 2614.71 862.15C2520.78 907.113 2448.3 977.275 2345.75 1025.38C2313.02 1031.24 2278.77 1030.06 2246.65 1017.92C2214.98 1007.04 2183.96 975.361 2184.82 937.814C2186.2 902.426 2207.9 875.416 2238.47 861.605C2257.38 854.243 2278.37 850.476 2299.62 854.845C2320.85 858.452 2341.45 876.58 2345.4 897.916C2349.16 914.129 2341.01 928.469 2331.33 937.576C2323.91 944.458 2314.73 949.605 2304.54 950.54C2294.23 951.892 2284.06 945.022 2281.31 936.143C2292.44 954.175 2314.45 943.028 2323.43 930.318C2330.17 921.611 2333.29 910.368 2329.99 902.406C2319.17 870.224 2277.62 870.427 2246.92 882.999C2226.29 891.392 2207.71 916.124 2207.81 937.416C2207.99 995.228 2286.54 1013.94 2341.57 1002.77C2425.88 962.141 2510.34 887.011 2604.36 841.61ZM2836.71 820.602C2859.54 830.871 2879.29 843.973 2892.43 854.532C2880.36 843.341 2867.39 834.262 2852.93 827.194C2847.56 824.662 2842.15 822.473 2836.71 820.602Z" fill="white"/>
</g>
</g>
<defs>
<filter id="filter0_d_18_591" x="-7.95801" y="6.94531" width="2673.47" height="1327.78" filterUnits="userSpaceOnUse" color-interpolation-filters="sRGB">
<feFlood flood-opacity="0" result="BackgroundImageFix"/>
<feColorMatrix in="SourceAlpha" type="matrix" values="0 0 0 0 0 0 0 0 0 0 0 0 0 0 0 0 0 0 127 0" result="hardAlpha"/>
<feOffset dy="21"/>
<feGaussianBlur stdDeviation="2"/>
<feComposite in2="hardAlpha" operator="out"/>
<feColorMatrix type="matrix" values="0 0 0 0 0 0 0 0 0 0 0 0 0 0 0 0 0 0 0.25 0"/>
<feBlend mode="normal" in2="BackgroundImageFix" result="effect1_dropShadow_18_591"/>
<feBlend mode="normal" in="SourceGraphic" in2="effect1_dropShadow_18_591" result="shape"/>
</filter>
<filter id="filter1_d_18_591" x="312.042" y="9.94434" width="2673.47" height="1327.78" filterUnits="userSpaceOnUse" color-interpolation-filters="sRGB">
<feFlood flood-opacity="0" result="BackgroundImageFix"/>
<feColorMatrix in="SourceAlpha" type="matrix" values="0 0 0 0 0 0 0 0 0 0 0 0 0 0 0 0 0 0 127 0" result="hardAlpha"/>
<feOffset dy="21"/>
<feGaussianBlur stdDeviation="2"/>
<feComposite in2="hardAlpha" operator="out"/>
<feColorMatrix type="matrix" values="0 0 0 0 0 0 0 0 0 0 0 0 0 0 0 0 0 0 0.25 0"/>
<feBlend mode="normal" in2="BackgroundImageFix" result="effect1_dropShadow_18_591"/>
<feBlend mode="normal" in="SourceGraphic" in2="effect1_dropShadow_18_591" result="shape"/>
</filter>
<linearGradient id="paint0_linear_18_591" x1="1318.65" y1="20.2104" x2="1341.44" y2="1336.19" gradientUnits="userSpaceOnUse">
<stop stop-color="#73D5FF"/>
<stop offset="1" stop-color="#0031F3"/>
</linearGradient>
<linearGradient id="paint1_linear_18_591" x1="1638.65" y1="23.2094" x2="1661.44" y2="1339.19" gradientUnits="userSpaceOnUse">
<stop stop-color="#73D5FF"/>
<stop offset="1" stop-color="#0031F3"/>
</linearGradient>
</defs>
</svg>
